<?xml version="1.0" encoding="UTF-8"?>
<svg xmlns="http://www.w3.org/2000/svg" xmlns:xlink="http://www.w3.org/1999/xlink" width="500px" height="500px" viewBox="0 0 500 500" version="1.1">
<g id="surface1">
<path style=" stroke:none;fill-rule:nonzero;fill:rgb(100%,100%,100%);fill-opacity:1;" d="M 79.894531 213.84375 L 62.9375 213.84375 L 56.289062 196.46875 L 25.625 196.46875 L 19.3125 213.84375 L 2.789062 213.84375 L 32.707031 137.074219 L 49.125 137.074219 Z M 30.351562 183.488281 L 51.375 183.488281 L 40.75 154.96875 Z M 30.351562 183.488281 "/>
<path style=" stroke:none;fill-rule:nonzero;fill:rgb(100%,100%,100%);fill-opacity:1;" d="M 102.929688 213.84375 L 87.492188 213.84375 L 87.492188 137.074219 L 102.929688 137.074219 Z M 102.929688 213.84375 "/>
<path style=" stroke:none;fill-rule:nonzero;fill:rgb(100%,100%,100%);fill-opacity:1;" d="M 144.863281 193.363281 L 116.007812 193.363281 L 116.007812 178.675781 L 144.863281 178.675781 Z M 144.863281 193.363281 "/>
<path style=" stroke:none;fill-rule:nonzero;fill:rgb(100%,100%,100%);fill-opacity:1;" d="M 168.441406 213.84375 L 153.003906 213.84375 L 153.003906 137.074219 L 168.441406 137.074219 Z M 168.441406 213.84375 "/>
<path style=" stroke:none;fill-rule:nonzero;fill:rgb(100%,100%,100%);fill-opacity:1;" d="M 220.332031 189.28125 L 233.957031 137.074219 L 257.226562 137.074219 L 257.226562 213.84375 L 242.851562 213.84375 L 242.851562 153.363281 L 227.75 213.84375 L 212.832031 213.84375 L 197.5 153.46875 L 197.5 213.84375 L 183.125 213.84375 L 183.125 137.074219 L 206.289062 137.074219 Z M 220.332031 189.28125 "/>
<path style=" stroke:none;fill-rule:nonzero;fill:rgb(100%,100%,100%);fill-opacity:1;" d="M 341.9375 213.84375 L 324.980469 213.84375 L 318.332031 196.46875 L 287.667969 196.46875 L 281.355469 213.84375 L 264.832031 213.84375 L 294.75 137.074219 L 311.167969 137.074219 Z M 292.394531 183.488281 L 313.417969 183.488281 L 302.792969 154.96875 Z M 292.394531 183.488281 "/>
<path style=" stroke:none;fill-rule:nonzero;fill:rgb(100%,100%,100%);fill-opacity:1;" d="M 385.453125 135.78125 C 394.246094 135.78125 401.464844 137.625 407.121094 141.300781 C 412.769531 144.984375 416.453125 150.652344 418.160156 158.300781 L 402.722656 161.199219 C 401.582031 157.199219 399.457031 154.175781 396.347656 152.136719 C 393.234375 150.09375 389.640625 149.074219 385.558594 149.074219 C 381.417969 149.074219 377.769531 149.863281 374.621094 151.449219 C 371.480469 153.019531 368.980469 155.300781 367.121094 158.300781 C 364.621094 162.300781 363.371094 167.734375 363.371094 174.59375 C 363.371094 182.675781 365.1875 189.238281 368.828125 194.28125 C 372.480469 199.324219 377.984375 201.84375 385.347656 201.84375 C 388.5 201.84375 391.644531 201.253906 394.785156 200.074219 C 397.921875 198.894531 400.816406 197.300781 403.472656 195.300781 L 403.472656 185.636719 L 385.785156 185.636719 L 385.785156 172.675781 L 419.121094 172.675781 L 419.121094 203.21875 C 415.253906 206.800781 410.308594 209.6875 404.265625 211.863281 C 398.234375 214.042969 392.25 215.136719 386.308594 215.136719 C 377.734375 215.136719 370.535156 213.355469 364.703125 209.78125 C 358.878906 206.199219 354.542969 201.386719 351.683594 195.34375 C 348.816406 189.300781 347.390625 182.605469 347.390625 175.238281 C 347.390625 168.089844 348.785156 161.53125 351.578125 155.574219 C 354.371094 149.605469 358.621094 144.8125 364.328125 141.199219 C 370.046875 137.589844 377.089844 135.78125 385.453125 135.78125 Z M 385.453125 135.78125 "/>
<path style=" stroke:none;fill-rule:nonzero;fill:rgb(100%,100%,100%);fill-opacity:1;" d="M 490.433594 150.050781 L 448.933594 150.050781 L 448.933594 167.09375 L 487.535156 167.09375 L 487.535156 180.074219 L 448.933594 180.074219 L 448.933594 200.863281 L 491.828125 200.863281 L 491.828125 213.84375 L 433.496094 213.84375 L 433.496094 137.074219 L 490.433594 137.074219 Z M 490.433594 150.050781 "/>
<path style=" stroke:none;fill-rule:nonzero;fill:rgb(100%,100%,100%);fill-opacity:1;" d="M 56.503906 256.609375 C 62.179688 256.609375 66.847656 257.808594 70.503906 260.191406 C 74.152344 262.566406 76.535156 266.230469 77.648438 271.171875 L 67.648438 273.027344 C 66.910156 270.441406 65.535156 268.496094 63.523438 267.171875 C 61.523438 265.855469 59.199219 265.191406 56.566406 265.191406 C 53.882812 265.191406 51.523438 265.707031 49.480469 266.734375 C 47.449219 267.75 45.839844 269.230469 44.648438 271.171875 C 43.023438 273.753906 42.210938 277.265625 42.210938 281.691406 C 42.210938 286.917969 43.386719 291.160156 45.753906 294.421875 C 48.113281 297.671875 51.667969 299.296875 56.417969 299.296875 C 58.460938 299.296875 60.492188 298.921875 62.523438 298.171875 C 64.566406 297.410156 66.441406 296.375 68.148438 295.066406 L 68.148438 288.839844 L 56.710938 288.839844 L 56.710938 280.441406 L 78.253906 280.441406 L 78.253906 300.214844 C 75.761719 302.519531 72.570312 304.378906 68.667969 305.796875 C 64.761719 307.199219 60.886719 307.902344 57.042969 307.902344 C 51.503906 307.902344 46.847656 306.75 43.085938 304.441406 C 39.320312 302.125 36.511719 299.015625 34.667969 295.109375 C 32.820312 291.207031 31.898438 286.875 31.898438 282.109375 C 31.898438 277.5 32.792969 273.265625 34.585938 269.402344 C 36.386719 265.542969 39.136719 262.441406 42.835938 260.109375 C 46.542969 257.777344 51.097656 256.609375 56.503906 256.609375 Z M 56.503906 256.609375 "/>
<path style=" stroke:none;fill-rule:nonzero;fill:rgb(100%,100%,100%);fill-opacity:1;" d="M 124.367188 265.816406 L 97.53125 265.816406 L 97.53125 276.839844 L 122.492188 276.839844 L 122.492188 285.234375 L 97.53125 285.234375 L 97.53125 298.671875 L 125.261719 298.671875 L 125.261719 307.066406 L 87.554688 307.066406 L 87.554688 257.441406 L 124.367188 257.441406 Z M 124.367188 265.816406 "/>
<path style=" stroke:none;fill-rule:nonzero;fill:rgb(100%,100%,100%);fill-opacity:1;" d="M 163.867188 290.566406 L 163.867188 257.441406 L 173.160156 257.441406 L 173.160156 307.066406 L 163.097656 307.066406 L 143.140625 274.691406 L 143.140625 307.066406 L 133.847656 307.066406 L 133.847656 257.441406 L 143.554688 257.441406 Z M 163.867188 290.566406 "/>
<path style=" stroke:none;fill-rule:nonzero;fill:rgb(100%,100%,100%);fill-opacity:1;" d="M 220.640625 265.816406 L 193.808594 265.816406 L 193.808594 276.839844 L 218.765625 276.839844 L 218.765625 285.234375 L 193.808594 285.234375 L 193.808594 298.671875 L 221.535156 298.671875 L 221.535156 307.066406 L 183.828125 307.066406 L 183.828125 257.441406 L 220.640625 257.441406 Z M 220.640625 265.816406 "/>
<path style=" stroke:none;fill-rule:nonzero;fill:rgb(100%,100%,100%);fill-opacity:1;" d="M 263.332031 259.027344 C 265.414062 259.917969 267.144531 261.472656 268.519531 263.691406 C 269.902344 265.902344 270.601562 268.464844 270.601562 271.378906 C 270.601562 275.078125 269.457031 278.183594 267.164062 280.691406 C 264.882812 283.207031 261.664062 284.722656 257.496094 285.234375 C 259.300781 286.484375 260.675781 287.515625 261.621094 288.316406 C 262.582031 289.125 263.621094 290.253906 264.746094 291.714844 C 265.882812 293.171875 267.277344 295.246094 268.933594 297.921875 L 274.621094 307.066406 L 262.644531 307.066406 L 254.601562 295.003906 C 252.792969 292.328125 251.394531 290.421875 250.394531 289.296875 C 249.402344 288.160156 248.355469 287.378906 247.246094 286.964844 C 246.132812 286.546875 244.566406 286.339844 242.539062 286.339844 L 240.039062 286.339844 L 240.039062 307.066406 L 230.058594 307.066406 L 230.058594 257.441406 L 251.746094 257.441406 C 254.105469 257.441406 256.246094 257.546875 258.164062 257.753906 C 260.082031 257.964844 261.800781 258.390625 263.332031 259.027344 Z M 256.246094 277.878906 C 257.457031 277.519531 258.425781 276.832031 259.164062 275.816406 C 259.898438 274.792969 260.269531 273.519531 260.269531 272.003906 C 260.269531 269.371094 259.132812 267.542969 256.871094 266.527344 C 256.273438 266.25 255.539062 266.0625 254.664062 265.964844 C 253.789062 265.871094 252.289062 265.816406 250.164062 265.816406 L 240.039062 265.816406 L 240.039062 278.441406 L 248.832031 278.441406 C 252.441406 278.441406 254.914062 278.253906 256.246094 277.878906 Z M 256.246094 277.878906 "/>
<path style=" stroke:none;fill-rule:nonzero;fill:rgb(100%,100%,100%);fill-opacity:1;" d="M 324.875 307.066406 L 313.917969 307.066406 L 309.625 295.839844 L 289.8125 295.839844 L 285.707031 307.066406 L 275.042969 307.066406 L 294.375 257.441406 L 304.980469 257.441406 Z M 292.855469 287.441406 L 306.4375 287.441406 L 299.582031 269.003906 Z M 292.855469 287.441406 "/>
<path style=" stroke:none;fill-rule:nonzero;fill:rgb(100%,100%,100%);fill-opacity:1;" d="M 365.917969 265.816406 L 351.210938 265.816406 L 351.210938 307.066406 L 341.230469 307.066406 L 341.230469 265.816406 L 326.542969 265.816406 L 326.542969 257.441406 L 365.917969 257.441406 Z M 365.917969 265.816406 "/>
<path style=" stroke:none;fill-rule:nonzero;fill:rgb(100%,100%,100%);fill-opacity:1;" d="M 394.394531 256.609375 C 399.613281 256.609375 404.023438 257.722656 407.621094 259.941406 C 411.230469 262.152344 413.941406 265.203125 415.746094 269.089844 C 417.550781 272.964844 418.457031 277.375 418.457031 282.316406 C 418.457031 287.597656 417.496094 292.152344 415.582031 295.984375 C 413.664062 299.816406 410.898438 302.765625 407.289062 304.816406 C 403.691406 306.875 399.441406 307.902344 394.539062 307.902344 C 389.414062 307.902344 385.027344 306.839844 381.394531 304.714844 C 377.769531 302.589844 375.027344 299.625 373.183594 295.816406 C 371.335938 292 370.414062 287.566406 370.414062 282.527344 C 370.414062 277.308594 371.335938 272.746094 373.183594 268.839844 C 375.027344 264.9375 377.746094 261.921875 381.332031 259.796875 C 384.914062 257.671875 389.269531 256.609375 394.394531 256.609375 Z M 380.746094 282.253906 C 380.746094 286.128906 381.363281 289.339844 382.601562 291.878906 C 383.851562 294.421875 385.519531 296.296875 387.601562 297.503906 C 389.683594 298.703125 391.976562 299.296875 394.476562 299.296875 C 396.777344 299.296875 398.945312 298.769531 400.976562 297.714844 C 403.019531 296.644531 404.714844 294.832031 406.082031 292.277344 C 407.441406 289.707031 408.121094 286.316406 408.121094 282.109375 C 408.121094 277.167969 407.027344 273.109375 404.851562 269.941406 C 402.683594 266.777344 399.195312 265.191406 394.394531 265.191406 C 389.644531 265.191406 386.175781 266.792969 383.996094 269.984375 C 381.832031 273.183594 380.746094 277.269531 380.746094 282.253906 Z M 380.746094 282.253906 "/>
<path style=" stroke:none;fill-rule:nonzero;fill:rgb(100%,100%,100%);fill-opacity:1;" d="M 459.691406 259.027344 C 461.777344 259.917969 463.503906 261.472656 464.878906 263.691406 C 466.265625 265.902344 466.964844 268.464844 466.964844 271.378906 C 466.964844 275.078125 465.816406 278.183594 463.527344 280.691406 C 461.246094 283.207031 458.027344 284.722656 453.859375 285.234375 C 455.660156 286.484375 457.035156 287.515625 457.984375 288.316406 C 458.941406 289.125 459.984375 290.253906 461.109375 291.714844 C 462.246094 293.171875 463.640625 295.246094 465.296875 297.921875 L 470.984375 307.066406 L 459.003906 307.066406 L 450.964844 295.003906 C 449.15625 292.328125 447.753906 290.421875 446.753906 289.296875 C 445.765625 288.160156 444.71875 287.378906 443.609375 286.964844 C 442.496094 286.546875 440.925781 286.339844 438.902344 286.339844 L 436.402344 286.339844 L 436.402344 307.066406 L 426.421875 307.066406 L 426.421875 257.441406 L 448.109375 257.441406 C 450.46875 257.441406 452.609375 257.546875 454.527344 257.753906 C 456.441406 257.964844 458.160156 258.390625 459.691406 259.027344 Z M 452.609375 277.878906 C 453.816406 277.519531 454.785156 276.832031 455.527344 275.816406 C 456.261719 274.792969 456.628906 273.519531 456.628906 272.003906 C 456.628906 269.371094 455.496094 267.542969 453.234375 266.527344 C 452.636719 266.25 451.902344 266.0625 451.027344 265.964844 C 450.152344 265.871094 448.652344 265.816406 446.527344 265.816406 L 436.402344 265.816406 L 436.402344 278.441406 L 445.191406 278.441406 C 448.800781 278.441406 451.277344 278.253906 452.609375 277.878906 Z M 452.609375 277.878906 "/>
<path style=" stroke:none;fill-rule:nonzero;fill:rgb(100%,100%,100%);fill-opacity:1;" d="M 146.679688 347.523438 C 147.621094 347.847656 148.417969 348.433594 149.074219 349.292969 C 149.726562 350.160156 150.054688 351.128906 150.054688 352.210938 C 150.054688 353.308594 149.746094 354.246094 149.136719 355.023438 C 148.523438 355.804688 147.871094 356.335938 147.179688 356.628906 C 148.539062 357.035156 149.523438 357.691406 150.136719 358.605469 C 150.746094 359.511719 151.054688 360.496094 151.054688 361.566406 C 151.054688 362.746094 150.703125 363.871094 150.011719 364.941406 C 149.328125 365.996094 148.414062 366.707031 147.261719 367.066406 C 146.746094 367.246094 146.09375 367.367188 145.304688 367.417969 C 144.523438 367.476562 143.578125 367.503906 142.46875 367.503906 L 133.929688 367.503906 L 133.929688 347.066406 L 142.46875 347.066406 C 143.453125 347.066406 144.273438 347.097656 144.929688 347.148438 C 145.578125 347.207031 146.164062 347.332031 146.679688 347.523438 Z M 146.03125 352.855469 C 146.03125 352.332031 145.898438 351.894531 145.636719 351.542969 C 145.386719 351.183594 145.058594 350.917969 144.65625 350.753906 C 144.292969 350.601562 143.601562 350.523438 142.574219 350.523438 L 138.03125 350.523438 L 138.03125 355.210938 L 142.65625 355.210938 C 144.90625 355.210938 146.03125 354.429688 146.03125 352.855469 Z M 144.636719 363.941406 C 145.261719 363.847656 145.773438 363.582031 146.179688 363.148438 C 146.59375 362.722656 146.804688 362.160156 146.804688 361.460938 C 146.804688 360.660156 146.601562 360.054688 146.199219 359.648438 C 145.792969 359.230469 145.25 358.960938 144.574219 358.835938 C 143.90625 358.710938 143.03125 358.648438 141.949219 358.648438 L 138.03125 358.648438 L 138.03125 364.042969 L 142.324219 364.042969 C 143.308594 364.042969 144.078125 364.011719 144.636719 363.941406 Z M 144.636719 363.941406 "/>
<path style=" stroke:none;fill-rule:nonzero;fill:rgb(100%,100%,100%);fill-opacity:1;" d="M 162.039062 355.148438 L 166.789062 347.066406 L 171.519531 347.066406 L 164.019531 358.941406 L 164.019531 367.503906 L 159.914062 367.503906 L 159.914062 358.917969 L 152.433594 347.066406 L 157.246094 347.066406 Z M 162.039062 355.148438 "/>
<path style=" stroke:none;fill-rule:nonzero;fill:rgb(100%,100%,100%);fill-opacity:1;" d="M 196.246094 350.523438 L 190.183594 350.523438 L 190.183594 367.503906 L 186.078125 367.503906 L 186.078125 350.523438 L 180.035156 350.523438 L 180.035156 347.066406 L 196.246094 347.066406 Z M 196.246094 350.523438 "/>
<path style=" stroke:none;fill-rule:nonzero;fill:rgb(100%,100%,100%);fill-opacity:1;" d="M 214.105469 350.523438 L 203.0625 350.523438 L 203.0625 355.066406 L 213.332031 355.066406 L 213.332031 358.503906 L 203.0625 358.503906 L 203.0625 364.042969 L 214.480469 364.042969 L 214.480469 367.503906 L 198.957031 367.503906 L 198.957031 347.066406 L 214.105469 347.066406 Z M 214.105469 350.523438 "/>
<path style=" stroke:none;fill-rule:nonzero;fill:rgb(100%,100%,100%);fill-opacity:1;" d="M 236.4375 367.503906 L 231.9375 367.503906 L 230.164062 362.878906 L 222 362.878906 L 220.3125 367.503906 L 215.914062 367.503906 L 223.875 347.066406 L 228.25 347.066406 Z M 223.25 359.417969 L 228.851562 359.417969 L 226.019531 351.835938 Z M 223.25 359.417969 "/>
<path style=" stroke:none;fill-rule:nonzero;fill:rgb(100%,100%,100%);fill-opacity:1;" d="M 248.464844 360.960938 L 252.089844 347.066406 L 258.277344 347.066406 L 258.277344 367.503906 L 254.441406 367.503906 L 254.441406 351.398438 L 250.421875 367.503906 L 246.464844 367.503906 L 242.378906 351.441406 L 242.378906 367.503906 L 238.546875 367.503906 L 238.546875 347.066406 L 244.714844 347.066406 Z M 248.464844 360.960938 "/>
<path style=" stroke:none;fill-rule:nonzero;fill:rgb(100%,100%,100%);fill-opacity:1;" d="M 284.035156 347.730469 C 284.878906 348.097656 285.585938 348.730469 286.160156 349.648438 C 286.726562 350.554688 287.011719 351.601562 287.011719 352.792969 C 287.011719 354.324219 286.539062 355.605469 285.597656 356.648438 C 284.664062 357.679688 283.347656 358.292969 281.636719 358.503906 C 282.371094 359.019531 282.933594 359.441406 283.324219 359.773438 C 283.710938 360.105469 284.136719 360.582031 284.597656 361.191406 C 285.066406 361.789062 285.648438 362.636719 286.347656 363.730469 L 288.679688 367.503906 L 283.742188 367.503906 L 280.429688 362.542969 C 279.691406 361.433594 279.117188 360.648438 278.699219 360.191406 C 278.292969 359.722656 277.867188 359.398438 277.410156 359.230469 C 276.949219 359.054688 276.304688 358.960938 275.472656 358.960938 L 274.429688 358.960938 L 274.429688 367.503906 L 270.324219 367.503906 L 270.324219 347.066406 L 279.261719 347.066406 C 280.230469 347.066406 281.105469 347.105469 281.886719 347.191406 C 282.679688 347.273438 283.394531 347.457031 284.035156 347.730469 Z M 281.117188 355.480469 C 281.601562 355.332031 281.996094 355.042969 282.304688 354.628906 C 282.605469 354.210938 282.761719 353.691406 282.761719 353.066406 C 282.761719 351.980469 282.292969 351.230469 281.367188 350.816406 C 281.117188 350.691406 280.808594 350.617188 280.449219 350.585938 C 280.085938 350.542969 279.472656 350.523438 278.597656 350.523438 L 274.429688 350.523438 L 274.429688 355.710938 L 278.054688 355.710938 C 279.539062 355.710938 280.558594 355.636719 281.117188 355.480469 Z M 281.117188 355.480469 "/>
<path style=" stroke:none;fill-rule:nonzero;fill:rgb(100%,100%,100%);fill-opacity:1;" d="M 309.375 367.503906 L 304.875 367.503906 L 303.101562 362.878906 L 294.9375 362.878906 L 293.25 367.503906 L 288.851562 367.503906 L 296.8125 347.066406 L 301.1875 347.066406 Z M 296.1875 359.417969 L 301.789062 359.417969 L 298.957031 351.835938 Z M 296.1875 359.417969 "/>
<path style=" stroke:none;fill-rule:nonzero;fill:rgb(100%,100%,100%);fill-opacity:1;" d="M 315.652344 355.105469 L 323.734375 355.105469 L 323.734375 347.066406 L 327.839844 347.066406 L 327.839844 367.503906 L 323.734375 367.503906 L 323.734375 358.566406 L 315.652344 358.566406 L 315.652344 367.503906 L 311.546875 367.503906 L 311.546875 347.066406 L 315.652344 347.066406 Z M 315.652344 355.105469 "/>
<path style=" stroke:none;fill-rule:nonzero;fill:rgb(100%,100%,100%);fill-opacity:1;" d="M 336.242188 358.941406 C 336.242188 360.082031 336.289062 360.898438 336.386719 361.398438 C 336.539062 362.246094 336.933594 362.949219 337.574219 363.503906 C 338.210938 364.042969 339.148438 364.316406 340.386719 364.316406 C 341.523438 364.316406 342.375 364.105469 342.949219 363.691406 C 343.515625 363.261719 343.886719 362.683594 344.054688 361.960938 C 344.230469 361.226562 344.324219 360.226562 344.324219 358.960938 L 344.324219 347.066406 L 348.429688 347.066406 L 348.429688 358.253906 C 348.429688 359.960938 348.351562 361.351562 348.199219 362.417969 C 347.640625 366.035156 345.074219 367.835938 340.492188 367.835938 C 338.03125 367.835938 336.1875 367.429688 334.96875 366.605469 C 333.761719 365.773438 332.980469 364.726562 332.636719 363.460938 C 332.304688 362.183594 332.136719 360.574219 332.136719 358.628906 L 332.136719 347.066406 L 336.242188 347.066406 Z M 336.242188 358.941406 "/>
<path style=" stroke:none;fill-rule:nonzero;fill:rgb(100%,100%,100%);fill-opacity:1;" d="M 356.996094 364.042969 L 367.269531 364.042969 L 367.269531 367.503906 L 352.871094 367.503906 L 352.871094 347.066406 L 356.996094 347.066406 Z M 356.996094 364.042969 "/>
</g>
</svg>
